<?xml version="1.0" standalone="no"?>
<!DOCTYPE svg PUBLIC "-//W3C//DTD SVG 1.1//EN" "http://www.w3.org/Graphics/SVG/1.1/DTD/svg11.dtd" >
<svg xmlns="http://www.w3.org/2000/svg">
<metadata>
This is a custom SVG webfont generated by Font Squirrel.
Copyright   : Copyright C 1998 Emigre Graphics Designed by Zuzana Licko
Foundry     : C Emigre Graphics Designed by Zuzana Licko
</metadata>
<defs>
<font id="TarzanaNarrowRegular" horiz-adv-x="860" >
<font-face units-per-em="2048" ascent="1638" descent="-410" />
<missing-glyph horiz-adv-x="368" />
<glyph unicode=" "  horiz-adv-x="368" />
<glyph unicode="&#x09;" horiz-adv-x="368" />
<glyph unicode="&#xa0;" horiz-adv-x="368" />
<glyph unicode="!" horiz-adv-x="696" d="M260 0v172h172v-172h-172zM266 1229h164l-39 -799h-86z" />
<glyph unicode="&#x22;" horiz-adv-x="763" d="M141 1229h154l-33 -512h-88zM469 1229h154l-33 -512h-88z" />
<glyph unicode="#" horiz-adv-x="870" d="M80 635v104h160v219h-160v105h160v166h104v-166h182v166h105v-166h160v-105h-160v-219h160v-104h-160v-166h-105v166h-182v-166h-104v166h-160zM344 739h182v219h-182v-219z" />
<glyph unicode="$" d="M180 868q0 94 57.5 160t149.5 84v172l109 39v-207q96 -8 172 -55v-131q-96 74 -213 74q-70 0 -114 -36t-44 -100q0 -96 145 -155q57 -25 96.5 -45.5t86.5 -58.5t71.5 -91t24.5 -121q0 -109 -59.5 -177t-165.5 -83v-174l-109 -39v215q-117 16 -205 90v144 q139 -127 262 -127q160 0 160 151q0 111 -162 176q-59 25 -93 43.5t-79 53.5t-67.5 83.5t-22.5 114.5z" />
<glyph unicode="%" horiz-adv-x="1294" d="M96 948.5q0 143.5 62.5 222t169 78.5t169 -78.5t62.5 -222t-62.5 -222.5t-169 -79t-169 79t-62.5 222.5zM209 948.5q0 -190.5 118.5 -190.5t118.5 190.5t-118.5 190.5t-118.5 -190.5zM303 0l576 1229h110l-575 -1229h-111zM733 280.5q0 143.5 62.5 222.5t169 79t169 -79 t62.5 -222.5t-62.5 -222t-169 -78.5t-169 78.5t-62.5 222zM846 280.5q0 -190.5 118.5 -190.5t118.5 190.5t-118.5 190.5t-118.5 -190.5z" />
<glyph unicode="&#x26;" horiz-adv-x="1007" d="M117 276q0 203 196 373q-35 133 -34 271q0 131 74.5 230t197.5 99q111 0 175.5 -67.5t64.5 -167.5q0 -45 -16.5 -88t-34 -72t-60.5 -69t-64.5 -57l-80.5 -61l-76 -57q72 -197 210 -338t302 -172v-120q-172 14 -344 161q-80 -162 -242 -161q-106 0 -187 74.5t-81 221.5z M240 276q0 -82 42 -130t103 -48q109 0 156 129q-121 137 -185 297q-116 -117 -116 -248zM401 920q0 -82 21 -185q154 115 190 156q55 61 56 123q0 55 -32 88t-85 33q-72 0 -111 -61.5t-39 -153.5z" />
<glyph unicode="'" horiz-adv-x="471" d="M160 1229h153l-32 -512h-88z" />
<glyph unicode="(" horiz-adv-x="737" d="M193 614q0 242 98 477.5t256 413.5h135q-367 -406 -367 -891t367 -890h-135q-158 178 -256 412t-98 478z" />
<glyph unicode=")" horiz-adv-x="737" d="M55 -276q367 406 367 891t-367 890h135q158 -178 256.5 -413.5t98.5 -477.5q0 -244 -98.5 -478t-256.5 -412h-135z" />
<glyph unicode="*" horiz-adv-x="946" d="M88 907l33 103l299 -99v318h106v-318l299 99l33 -103l-301 -94l186 -256l-86 -61l-184 254l-184 -254l-86 61l184 256z" />
<glyph unicode="+" d="M123 428v109h254v251h108v-251h252v-109h-252v-254h-108v254h-254z" />
<glyph unicode="," horiz-adv-x="552" d="M106 -246q59 18 89 82t19 120t-54 60v160h172v-180q0 -285 -226 -324v82z" />
<glyph unicode="-" d="M164 428v109h532v-109h-532z" />
<glyph unicode="." horiz-adv-x="552" d="M158 0v176h176v-176h-176z" />
<glyph unicode="/" horiz-adv-x="808" d="M61 0l576 1229h111l-576 -1229h-111z" />
<glyph unicode="0" d="M150 614.5q0 354.5 62 494.5t218 140t218.5 -140t62.5 -494.5t-62.5 -494.5t-218.5 -140t-218 140t-62 494.5zM272 614q0 -143 5.5 -228t20.5 -156.5t48 -101.5t84 -30t84 30t48.5 101.5t20.5 156.5t5 228q0 285 -30 400.5t-128 115.5t-128 -115.5t-30 -400.5z" />
<glyph unicode="1" d="M231 0v119h160v991h-160v119h283v-1110h160v-119h-443z" />
<glyph unicode="2" d="M166 885q-8 50 -8 94q0 108 50 175q71 95 208 95q297 0 297 -344q0 -98 -43 -189t-106 -160l-124 -132q-61 -63 -104 -135t-43 -142v-28h418v-119h-537v41v106q0 84 43 167t105 151l121 135q60 68 103.5 146.5t43.5 158.5q0 125 -42 177.5t-132 52.5q-86 0 -123 -63 q-22 -37 -22 -97q0 -40 10 -90h-115z" />
<glyph unicode="3" d="M160 1110v119h559v-103l-260 -370q258 -12 258 -391q0 -385 -287 -385q-135 0 -210 98q-56 74 -56 187q0 37 6 79h115q-8 -39 -8 -73q0 -63 27 -108q42 -69 126 -69t124 60.5t40 210.5q0 147 -40 207.5t-124 60.5h-131v98l264 379h-403z" />
<glyph unicode="4" d="M78 295v90l457 844h98v-815h104v-119h-104v-295h-121v295h-434zM219 414h293v540z" />
<glyph unicode="5" d="M170 344h115q-8 -40 -8 -74q0 -64 27 -108q42 -68 126 -68t124 66.5t40 224.5q0 160 -40 224.5t-124 64.5q-90 0 -131 -84h-98v639h489v-119h-366v-352q51 33 118 33q131 0 203 -93.5t72 -312.5q0 -221 -74 -313t-213 -92q-135 0 -210 98q-56 74 -56 187q0 37 6 79z" />
<glyph unicode="6" d="M143 344q0 145 47.5 303t116 277.5t119.5 194.5t84 110h152q-231 -248 -340 -561q53 41 129 41q121 0 193.5 -90.5t72.5 -274.5t-76 -274t-211 -90q-287 -1 -287 364zM266 344q0 -250 164 -250t164 250q0 131 -40 190.5t-124 59.5t-124 -59.5t-40 -190.5z" />
<glyph unicode="7" d="M123 1110v119h610v-103l-149 -335q-92 -207 -132 -382.5t-40 -408.5h-123q0 426 194 860l113 250h-473z" />
<glyph unicode="8" d="M143 291q0 225 197 366q-170 135 -170 318q0 127 70.5 200.5t189.5 73.5t189.5 -73.5t70.5 -200.5q0 -184 -170 -316q197 -145 197 -368q0 -145 -78 -228t-209 -83t-209 83t-78 228zM266 291q0 -92 42 -144.5t122 -52.5t122 52.5t42 144.5q0 170 -164 299 q-164 -129 -164 -299zM293 975q0 -152 137 -252q137 100 137 252q0 160 -137 160t-137 -160z" />
<glyph unicode="9" d="M143 884.5q0 184.5 76 274.5t211 90q287 0 287 -364q0 -145 -47 -303t-116 -278t-120 -194.5t-84 -109.5h-151q231 248 340 561q-53 -41 -129 -41q-121 0 -194 90t-73 274.5zM266 885q0 -131 40 -190.5t124 -59.5t124 59.5t40 190.5q0 250 -164 250t-164 -250z" />
<glyph unicode=":" horiz-adv-x="552" d="M160 0v172h172v-172h-172zM160 528v172h172v-172h-172z" />
<glyph unicode=";" horiz-adv-x="552" d="M106 -246q59 18 90 82q22 46 21 88q0 16 -3 32q-11 56 -54 60v160h172v-180q0 -285 -226 -324v82zM160 528v172h172v-172h-172z" />
<glyph unicode="&#x3c;" horiz-adv-x="819" d="M123 453v49l575 450v-137l-430 -338l430 -338v-137z" />
<glyph unicode="=" d="M164 264v109h532v-109h-532zM164 592v108h532v-108h-532z" />
<glyph unicode="&#x3e;" horiz-adv-x="819" d="M121 2v137l430 338l-430 338v137l575 -450v-49z" />
<glyph unicode="?" horiz-adv-x="839" d="M154 905q-14 61 -15 111q0 91 48 147q75 86 219 86q141 0 224 -73.5t83 -229.5q0 -86 -32 -153.5t-74 -108.5l-84 -81q-42 -40 -64 -93q-15 -34 -15 -75q0 -22 5 -46h-119q-6 30 -6 59q0 40 12 76q20 61 62 107l85 88q43 43 75 101.5t32 125.5q0 188 -184 189 q-147 0 -148 -134q0 -41 14 -96h-118zM301 0v172h172v-172h-172z" />
<glyph unicode="@" horiz-adv-x="1423" d="M152 563q0 279 187 481.5t449 202.5q215 0 359.5 -143t144.5 -367q0 -182 -100 -328.5t-223 -146.5q-84 0 -123 96q-82 -96 -172 -96q-115 0 -168 99q-40 74 -40 176q0 35 5 73q16 150 103.5 257.5t195.5 107.5q70 0 131 -66l121 52l-72 -480q-3 -23 -3 -42q0 -82 65 -83 q57 0 125.5 118t68.5 263q0 195 -121.5 300.5t-296.5 105.5q-217 0 -368.5 -173t-151.5 -403q0 -215 132 -353t354 -138q88 0 159.5 15t109.5 31.5t103 51.5v-96q-61 -41 -168.5 -69.5t-203.5 -28.5q-260 0 -431 165.5t-171 417.5zM588 610q-5 -37 -5 -69q0 -66 20 -108 q30 -62 87 -62q53 0 100.5 60.5t63.5 176.5l25 170q-10 37 -40 61.5t-69 24.5q-66 0 -118 -74t-64 -180z" />
<glyph unicode="A" horiz-adv-x="942" d="M57 0l330 1229h168l330 -1229h-123l-74 281h-434l-74 -281h-123zM285 399h372l-186 719z" />
<glyph unicode="B" horiz-adv-x="915" d="M176 1229h250q156 0 234.5 -90t78.5 -234q0 -152 -92 -243q170 -88 170 -312q0 -154 -86 -252t-254 -98h-301v1229zM299 119h178q106 0 161.5 64.5t55.5 166.5q0 231 -217 232h-178v-463zM299 1110v-410h127q190 0 190 205q0 90 -48 147.5t-142 57.5h-127z" />
<glyph unicode="C" horiz-adv-x="856" d="M129 614.5q0 325.5 87 480t296 154.5q125 0 258 -84v-141q-127 106 -258 106q-145 0 -202.5 -125.5t-57.5 -390t57.5 -390.5t202.5 -126q129 0 258 107v-142q-125 -84 -258 -83q-209 0 -296 154.5t-87 480z" />
<glyph unicode="D" horiz-adv-x="1042" d="M176 0v1229h264q473 0 473 -614.5t-473 -614.5h-264zM299 119h141q350 0 350.5 495.5t-350.5 495.5h-141v-991z" />
<glyph unicode="E" horiz-adv-x="815" d="M127 346q0 209 127 309q-100 94 -100 263q0 150 77.5 240.5t217.5 90.5q98 0 251 -30v-119q-147 31 -251 30q-170 0 -170 -212q0 -96 38.5 -151.5t116.5 -55.5h225v-119h-225q-88 0 -135 -67.5t-47 -178.5q0 -248 197 -248q158 0 272 31v-119q-139 -31 -272 -30 q-152 0 -237 99t-85 267z" />
<glyph unicode="F" horiz-adv-x="741" d="M176 0v1229h512v-119h-389v-410h369v-118h-369v-582h-123z" />
<glyph unicode="G" horiz-adv-x="962" d="M129 614q0 334 91 484.5t323 150.5q127 0 258 -84v-141q-127 106 -258 107q-174 0 -232.5 -122t-58.5 -395q0 -270 56.5 -394t213.5 -124q35 0 67 7.5t49 14.5t43 20.5t36 17.5v340h-205v118h328v-557q-43 0 -142.5 -38.5t-175.5 -38.5q-215 0 -304 153t-89 481z" />
<glyph unicode="H" horiz-adv-x="1046" d="M176 0v1229h123v-529h449v529h122v-1229h-122v582h-449v-582h-123z" />
<glyph unicode="I" horiz-adv-x="516" d="M197 0v1229h122v-1229h-122z" />
<glyph unicode="J" horiz-adv-x="538" d="M-31 -170q59 6 100.5 24.5t78 63.5t55 130t18.5 212v969h123v-969q0 -197 -46 -316.5t-125 -168.5t-204 -58v113z" />
<glyph unicode="K" horiz-adv-x="921" d="M176 0v1229h123v-586l399 586h148l-397 -580q45 -6 83.5 -27.5t65.5 -42t55 -68.5l42 -72q13 -24 36 -90t29 -86l28 -95q16 -55 32 -74.5t44 -19.5q20 0 43 12v-78q-51 -29 -102 -28q-86 0 -123 118q-6 16 -23.5 79t-26.5 89.5t-29.5 79.5t-39 79t-45 57.5t-60.5 45 t-73 13.5q-45 0 -86 -13v-528h-123z" />
<glyph unicode="L" horiz-adv-x="749" d="M176 0v1229h123v-1110h410v-119h-533z" />
<glyph unicode="M" horiz-adv-x="1163" d="M109 0l106 1229h113l254 -778l254 778h112l107 -1229h-115l-84 975l-231 -709h-86l-232 709l-84 -975h-114z" />
<glyph unicode="N" horiz-adv-x="1005" d="M178 0v1229h117l418 -950v950h114v-1229h-116l-418 950v-950h-115z" />
<glyph unicode="O" horiz-adv-x="1003" d="M129 614.5q0 329.5 85 482t288 152.5t287.5 -152.5t84.5 -482t-84.5 -482t-287.5 -152.5t-288 152.5t-85 482zM252 614.5q0 -270.5 54 -393.5t195.5 -123t196 123t54.5 393.5t-54.5 393t-196 122.5t-195.5 -122.5t-54 -393z" />
<glyph unicode="P" horiz-adv-x="886" d="M176 0v1229h258q178 0 273.5 -103.5t95.5 -283.5q0 -178 -95.5 -281.5t-273.5 -103.5h-135v-457h-123zM299 575h135q246 0 246 267q0 268 -246 268h-135v-535z" />
<glyph unicode="Q" horiz-adv-x="1003" d="M129 614q0 330 85 482.5t288 152.5t287.5 -152.5t84.5 -482t-84.5 -482t-287.5 -152.5q-80 0 -127 24q115 -231 360 -385h-205q-401 333 -401 995zM252 614.5q0 -270.5 54 -393.5t195.5 -123t196 123t54.5 393.5t-54.5 393t-196 122.5t-195.5 -122.5t-54 -393z" />
<glyph unicode="R" horiz-adv-x="962" d="M176 0v1229h297q160 0 246 -99.5t86 -250.5q0 -111 -48 -197t-139 -127q119 -106 199 -387q16 -59 30.5 -76.5t45.5 -17.5q20 0 43 12v-78q-51 -29 -102 -28q-86 0 -123 118q-4 16 -15 47q-18 66 -29.5 100t-33 88t-43 82.5t-53 60.5t-71.5 45.5t-89 13.5q-37 0 -78 -11 v-524h-123zM299 647h174q209 0 209 231.5t-209 231.5h-174v-463z" />
<glyph unicode="S" horiz-adv-x="831" d="M121 936q0 137 87 225t226 88q133 0 236 -71v-140q-115 92 -236 92q-96 0 -144 -53t-48 -139q0 -133 178 -225q68 -35 110.5 -62.5t95 -77t79 -114t26.5 -146.5q0 -156 -87 -244.5t-241 -88.5q-160 0 -280 100v139q147 -123 280 -123q207 0 207 215q0 154 -192 254 q-61 31 -85 44.5t-75 50t-73.5 69.5t-43 87t-20.5 120z" />
<glyph unicode="T" horiz-adv-x="733" d="M16 1110v119h701v-119h-289v-1110h-123v1110h-289z" />
<glyph unicode="U" horiz-adv-x="983" d="M166 303v926h123v-926q0 -205 202.5 -205t202.5 205v926h123v-926q0 -150 -88 -236.5t-237.5 -86.5t-237.5 86.5t-88 236.5z" />
<glyph unicode="V" horiz-adv-x="888" d="M57 1229h125l262 -1082l263 1082h124l-307 -1229h-159z" />
<glyph unicode="W" horiz-adv-x="1163" d="M109 1229h114l84 -975l232 709h86l231 -709l84 975h115l-107 -1229h-112l-254 778l-254 -778h-113z" />
<glyph unicode="X" horiz-adv-x="858" d="M55 0l305 625l-294 604h137l225 -465l227 465h138l-297 -602l307 -627h-135l-238 487l-240 -487h-135z" />
<glyph unicode="Y" horiz-adv-x="856" d="M45 1229h131l252 -701l252 701h131l-549 -1508h-129l229 635z" />
<glyph unicode="Z" horiz-adv-x="821" d="M90 0v94l447 1016h-445v119h586v-94l-447 -1016h488v-119h-629z" />
<glyph unicode="[" horiz-adv-x="839" d="M266 -205v1639h416v-109h-297v-1421h297v-109h-416z" />
<glyph unicode="\" horiz-adv-x="808" d="M59 1229h111l575 -1229h-110z" />
<glyph unicode="]" horiz-adv-x="839" d="M158 -96h297v1421h-297v109h415v-1639h-415v109z" />
<glyph unicode="^" d="M102 836l308 393h49l307 -393h-137l-195 247l-194 -247h-138z" />
<glyph unicode="_" horiz-adv-x="921" d="M18 0h885v-109h-885v109z" />
<glyph unicode="`" d="M207 1309h135l242 -305h-121z" />
<glyph unicode="a" horiz-adv-x="931" d="M121 410q0 430 311 430q111 0 186 -76l134 61v-657q0 -94 55 -94q20 0 43 12v-78q-51 -29 -102 -28q-43 0 -74 24.5t-41 65.5q-80 -90 -201 -90q-311 0 -311 430zM244 409.5q0 -311.5 188 -311.5q137 0 197 125v373q-59 125 -197 125q-188 0 -188 -311.5z" />
<glyph unicode="b" horiz-adv-x="903" d="M152 -6v1235l122 57v-534q70 88 197 88q311 0 311 -430t-311 -430q-106 0 -186 75zM274 223q59 -125 197 -125q188 0 188 311.5t-188 311.5q-137 0 -197 -125v-373z" />
<glyph unicode="c" horiz-adv-x="808" d="M121 410q0 221 90 325.5t246 104.5q133 0 195 -80q47 -60 47 -140q0 -26 -5 -55h-108q2 17 2 34q0 49 -24 82q-32 44 -107 44q-213 0 -213 -315q0 -158 53 -237t174 -79q55 0 124 29t110 74v-134q-119 -84 -259 -83q-152 0 -238.5 110.5t-86.5 319.5z" />
<glyph unicode="d" horiz-adv-x="931" d="M121 410q0 430 311 430q115 0 197 -88v477l123 57v-1118q0 -94 55 -94q20 0 43 12v-78q-51 -29 -102 -28q-43 0 -74 24.5t-41 65.5q-80 -90 -201 -90q-311 0 -311 430zM244 409.5q0 -311.5 188 -311.5q137 0 197 125v373q-59 125 -197 125q-188 0 -188 -311.5z" />
<glyph unicode="e" horiz-adv-x="851" d="M121 410q0 219 94 324.5t256 105.5q111 0 178.5 -49.5t82.5 -117.5q9 -41 9 -83q0 -27 -4 -54q-10 -69 -39 -116h-454v-10q0 -158 58 -237t185 -79q59 0 131 29t115 74v-134q-129 -84 -272 -83q-160 0 -250 111.5t-90 318.5zM254 532h354q13 38 14 79q0 48 -40 81 q-39 33 -111 33q-178 0 -217 -193z" />
<glyph unicode="f" horiz-adv-x="618" d="M74 711v108h131v131q0 299 237 299q84 0 148 -37v-137q-61 55 -135 55q-63 0 -95 -35.5t-32 -144.5v-131h262v-108h-262v-711h-123v711h-131z" />
<glyph unicode="g" horiz-adv-x="856" d="M80 -164q0 147 110 201q-57 49 -57 129q0 94 78 143q-70 66 -70 217q0 293 277 293h22h379v-108h-170q45 -61 45 -185q0 -293 -276 -293q-20 0 -53 5.5t-43 5.5q-35 0 -57.5 -23.5t-22.5 -54.5q0 -35 22.5 -59.5t59.5 -24.5q18 0 48.5 2t45.5 2q338 0 338 -250t-338 -250 t-338 250zM190 -164q0 -137 227.5 -137t227.5 137t-227.5 137t-227.5 -137zM256 526.5q0 -188.5 162 -188.5t162 188.5t-162 188.5t-162 -188.5z" />
<glyph unicode="h" horiz-adv-x="884" d="M152 0v1229l122 57v-526q49 31 118 55.5t114 24.5q139 0 188 -82t49 -240v-518h-122v518q0 115 -31 159t-94 44q-53 0 -118 -25.5t-104 -56.5v-639h-122z" />
<glyph unicode="i" horiz-adv-x="466" d="M172 0v803l123 57v-860h-123zM172 1073v156h123v-156h-123z" />
<glyph unicode="j" horiz-adv-x="466" d="M-80 -301q59 6 100 24.5t78 63.5t55.5 130t18.5 212v674l123 57v-731q0 -197 -46 -316.5t-125 -169t-204 -57.5v113zM172 1073v156h123v-156h-123z" />
<glyph unicode="k" horiz-adv-x="829" d="M152 0v1229l122 57v-815q39 -7 74 -7q111 0 177 76q56 64 57 163q0 53 -17 116h119q13 -60 13 -114q0 -71 -22 -133q-40 -110 -136 -166l221 -406h-142l-196 362q-35 -7 -75 -6q-34 0 -73 4v-360h-122z" />
<glyph unicode="l" horiz-adv-x="466" d="M172 0v1229l123 57v-1286h-123z" />
<glyph unicode="m" horiz-adv-x="1312" d="M152 0v803l122 57v-98q131 78 211 78q145 0 201 -103q47 35 125 69t123 34q139 0 188 -83t49 -220v-537h-122v522q0 92 -25 145.5t-100 53.5q-86 0 -207 -84q6 -49 6 -100v-537h-123v522q0 92 -24.5 145.5t-100.5 53.5q-82 0 -201 -80v-641h-122z" />
<glyph unicode="n" horiz-adv-x="884" d="M152 0v803l122 57v-100q49 31 118 55.5t114 24.5q139 0 188 -82t49 -240v-518h-122v518q0 115 -31 159t-94 44q-53 0 -118 -25.5t-104 -56.5v-639h-122z" />
<glyph unicode="o" horiz-adv-x="905" d="M121 410q0 430 331.5 430t331.5 -430t-331.5 -430t-331.5 430zM244 409.5q0 -315.5 209 -315.5t209 315.5t-209 315.5t-209 -315.5z" />
<glyph unicode="p" horiz-adv-x="903" d="M152 -410v1213l122 57v-108q82 88 197 88q311 0 311 -430t-311 -430q-115 0 -197 88v-478h-122zM274 223q59 -125 197 -125q188 0 188 311.5t-188 311.5q-137 0 -197 -125v-373z" />
<glyph unicode="q" horiz-adv-x="903" d="M121 410q0 430 311 430q106 0 186 -76l134 61v-1235h-123v478q-76 -88 -197 -88q-311 0 -311 430zM244 409.5q0 -311.5 188 -311.5q137 0 197 125v373q-59 125 -197 125q-188 0 -188 -311.5z" />
<glyph unicode="r" horiz-adv-x="577" d="M152 0v803l122 57v-153q45 57 126 100t130 43v-139q-55 0 -136 -35t-120 -80v-596h-122z" />
<glyph unicode="s" horiz-adv-x="727" d="M109 619q0 102 71.5 161.5t184.5 59.5q115 0 202 -49v-129q-92 68 -202 67q-59 0 -100.5 -27.5t-41.5 -83.5q0 -49 35 -76.5t96 -49.5q55 -20 90 -38t81 -50.5t69.5 -81t23.5 -109.5q0 -109 -67.5 -171t-188.5 -62q-137 0 -251 94v143q131 -127 251 -127q141 0 142 123 q0 41 -25.5 70.5t-52.5 43t-72 29.5q-53 20 -87 37t-75.5 46.5t-62 75t-20.5 104.5z" />
<glyph unicode="t" horiz-adv-x="655" d="M57 711v108h131v230l123 57v-287h273v-108h-273v-389q0 -133 29 -177.5t115 -44.5q47 0 129 37v-117q-100 -41 -158 -40q-141 0 -189.5 83.5t-48.5 258.5v389h-131z" />
<glyph unicode="u" horiz-adv-x="903" d="M141 322v497h123v-497q0 -135 30 -179.5t95 -44.5q102 0 211 74v647h123v-651q0 -94 55 -94q20 0 43 12v-78q-51 -29 -102 -28q-88 0 -113 77q-47 -31 -114.5 -54t-112.5 -23q-141 0 -189.5 84t-48.5 258z" />
<glyph unicode="v" horiz-adv-x="778" d="M59 819h129l201 -655l201 655h129l-258 -819h-144z" />
<glyph unicode="w" horiz-adv-x="1064" d="M74 819h108l129 -583l178 583h86l179 -583l129 583h108l-180 -819h-94l-185 600l-184 -600h-94z" />
<glyph unicode="x" horiz-adv-x="753" d="M59 0l250 418l-239 401h135l172 -289l172 289h135l-240 -401l250 -418h-135l-182 305l-182 -305h-136z" />
<glyph unicode="y" horiz-adv-x="776" d="M41 -301q11 -2 21 -2q65 0 125 65q71 76 132 293l5 15l-265 749h129l199 -573l201 573h129l-285 -809q-82 -233 -176 -335q-80 -86 -178 -85q-18 0 -37 2v107z" />
<glyph unicode="z" horiz-adv-x="675" d="M74 0v84l364 627h-338v108h486v-84l-365 -626h381v-109h-528z" />
<glyph unicode="{" horiz-adv-x="819" d="M123 586v57q66 23 99.5 40t70.5 52t51 93.5t14 146.5q0 266 108.5 399t309.5 133v-112q-297 0 -297 -414q0 -295 -176 -367q176 -70 176 -366q0 -197 74 -305.5t223 -108.5v-113q-201 0 -309.5 133.5t-108.5 399.5q0 166 -53 227.5t-182 104.5z" />
<glyph unicode="|" horiz-adv-x="704" d="M303 0v1536h109v-1536h-109z" />
<glyph unicode="}" horiz-adv-x="819" d="M43 -166q150 0 223.5 108.5t73.5 305.5q0 297 176 366q-176 72 -176 367q0 414 -297 414v112q201 0 309.5 -133t108.5 -399q0 -166 53 -227.5t182 -104.5v-57q-66 -23 -99.5 -40.5t-70.5 -52t-51 -93t-14 -146.5q0 -266 -108.5 -399.5t-309.5 -133.5v113z" />
<glyph unicode="~" horiz-adv-x="870" d="M123 389q4 98 45 159.5t121 61.5q70 0 156.5 -63.5t117.5 -63.5q41 0 59.5 19.5t30.5 81.5h84q-4 -96 -44 -157.5t-122 -61.5q-74 0 -156.5 62t-115.5 62q-43 0 -62.5 -20t-29.5 -80h-84z" />
<glyph unicode="&#xa1;" horiz-adv-x="696" d="M260 647v172h172v-172h-172zM266 -410l39 799h86l39 -799h-164z" />
<glyph unicode="&#xa2;" d="M150 618q0 381 264 426v240l108 39v-276q109 -14 158 -92q36 -56 36 -126q0 -26 -5 -55h-109q3 18 3 34q0 49 -23 82q-31 44 -105 44q-98 0 -151.5 -70.5t-53.5 -245.5q0 -162 48.5 -238.5t171.5 -76.5q55 0 121.5 28.5t107.5 74.5v-134q-86 -63 -199 -79v-230l-108 -39 v269q-125 18 -194.5 126.5t-69.5 298.5z" />
<glyph unicode="&#xa3;" d="M127 0v113h131v436h-131v113h131v77v211q0 299 279 299q94 0 168 -37v-143q-76 55 -166 55q-76 0 -117 -40t-41 -140v-211v-71h324v-113h-324v-436h410v-113h-664z" />
<glyph unicode="&#xa4;" d="M82 444v109h108v61v62h-108v108h115q18 236 99 350.5t245 114.5q115 0 233 -84v-141q-113 106 -233 106q-109 0 -160 -84.5t-64 -261.5h310v-108h-314v-62v-61h273v-109h-269q12 -176 63.5 -261t160.5 -85q119 0 233 107v-142q-113 -84 -233 -83q-164 0 -246 114.5 t-98 349.5h-115z" />
<glyph unicode="&#xa5;" horiz-adv-x="913" d="M47 1229h143l267 -527l266 527h143l-348 -676h236v-119h-236v-434h-123v434h-235v119h235z" />
<glyph unicode="&#xa6;" horiz-adv-x="559" d="M219 0v696h119v-696h-119zM219 840v696h119v-696h-119z" />
<glyph unicode="&#xa7;" horiz-adv-x="798" d="M133 86v150q47 -57 122 -105.5t151 -48.5q61 0 107 30.5t46 90.5q0 49 -43 86t-105.5 64.5t-124 59t-104.5 87t-43 129.5q0 66 37 116t100 76q-137 86 -137 209q0 94 78 156.5t189 62.5q109 0 210 -67v-135q-96 92 -210 92q-59 0 -101.5 -30t-42.5 -79q0 -43 43 -76.5 t104.5 -62.5t124 -62.5t105.5 -91t43 -133.5q0 -131 -121 -194q121 -84 121 -207q0 -104 -80 -168t-196 -64q-86 0 -160 37t-113 78zM262 629q0 -45 39 -75t125 -71l20 -10q49 6 81 41t32 90q0 47 -35 79t-100 65q-8 2 -29 2q-57 0 -95 -35t-38 -86z" />
<glyph unicode="&#xa8;" d="M211 1014v131h131v-131h-131zM528 1014v131h131v-131h-131z" />
<glyph unicode="&#xa9;" horiz-adv-x="1515" d="M123 614.5q0 262.5 186.5 448.5t448.5 186t448.5 -186t186.5 -448.5t-186.5 -448.5t-448.5 -186t-448.5 186t-186.5 448.5zM221 614.5q0 -223.5 157 -380t380 -156.5t379.5 156.5t156.5 380t-156.5 380t-379.5 156.5t-380 -156.5t-157 -380zM487 614q0 385 285 385 q98 0 191 -63v-121q-104 76 -191 76q-168 0 -168 -277q0 -279 168 -278q86 0 191 76v-121q-88 -63 -191 -64q-285 0 -285 387z" />
<glyph unicode="&#xaa;" horiz-adv-x="745" d="M119 926q0 143 63.5 228t173.5 85q74 0 131 -47l97 45v-479q0 -53 26 -53q12 0 43 16v-82q-43 -23 -84 -23q-59 0 -82 43q-53 -43 -131 -43q-111 0 -174 84.5t-63 225.5zM227 926q0 -207 129 -207q86 0 119 80v254q-35 82 -119 82q-129 0 -129 -209z" />
<glyph unicode="&#xab;" horiz-adv-x="1044" d="M123 453v49l452 354v-137l-307 -242l307 -241v-138zM489 453v49l453 354v-137l-307 -242l307 -241v-138z" />
<glyph unicode="&#xac;" horiz-adv-x="909" d="M164 428v109h571v-299h-108v190h-463z" />
<glyph unicode="&#xad;" d="M164 428v109h532v-109h-532z" />
<glyph unicode="&#xae;" horiz-adv-x="1515" d="M123 614.5q0 262.5 186.5 448.5t448.5 186t448.5 -186t186.5 -448.5t-186.5 -448.5t-448.5 -186t-448.5 186t-186.5 448.5zM221 614.5q0 -223.5 157 -380t380 -156.5t379.5 156.5t156.5 380t-156.5 380t-379.5 156.5t-380 -156.5t-157 -380zM553 246v747h188 q109 0 172.5 -62.5t63.5 -158.5q0 -129 -107 -188q68 -66 113 -217q12 -43 31 -43q23 0 45 14v-80q-39 -25 -82 -25q-70 0 -94 80q-2 6 -13.5 48t-15.5 52l-17 41q-13 32 -25 42l-31 27q-19 17 -44.5 22.5t-56.5 5.5h-16v-305h-111zM664 657h77q61 0 93 32t32 83t-32.5 84 t-92.5 33h-77v-232z" />
<glyph unicode="&#xaf;" d="M199 1004v112h477v-112h-477z" />
<glyph unicode="&#xb0;" d="M164 983q0 109 79 187.5t187.5 78.5t187 -78.5t78.5 -187.5t-78.5 -187.5t-187 -78.5t-187.5 78.5t-79 187.5zM270 983.5q0 -65.5 47.5 -113t113 -47.5t112.5 47.5t47 113t-47 112.5t-112.5 47t-113 -47t-47.5 -112.5z" />
<glyph unicode="&#xb1;" d="M123 0v109h614v-109h-614zM123 449v108h254v231h108v-231h252v-108h-252v-234h-108v234h-254z" />
<glyph unicode="&#xb2;" horiz-adv-x="552" d="M115 1014q-1 19 -2 36q0 84 33 131q40 56 118 56q80 0 124 -50t44 -143q0 -66 -32.5 -123t-71.5 -90.5t-72 -75.5t-33 -79h209v-105h-309v95q0 55 32.5 109t71.5 91t72 85t33 93q0 94 -68 95q-53 0 -53 -88q0 -17 2 -37h-98z" />
<glyph unicode="&#xb3;" horiz-adv-x="552" d="M113 1126v101h321l-2 -78l-117 -168q117 -29 117 -207q0 -104 -44 -158.5t-120 -54.5q-78 0 -120 57q-35 48 -35 132q0 16 2 34h98q-2 -19 -2 -35q0 -89 57 -90q63 0 63.5 115t-63.5 115h-84v78l111 159h-182z" />
<glyph unicode="&#xb4;" d="M246 1004l241 305h136l-256 -305h-121z" />
<glyph unicode="&#xb5;" horiz-adv-x="903" d="M141 -410v1229h123v-497q0 -135 30 -179.5t95 -44.5q102 0 211 74v647h123v-651q0 -94 55 -94q20 0 43 12v-78q-51 -29 -102 -28q-88 0 -113 77q-47 -31 -114.5 -54t-112.5 -23q-72 0 -115 20v-410h-123z" />
<glyph unicode="&#xb6;" horiz-adv-x="1007" d="M82 944q0 117 82 201t198 84h549v-119h-137v-1520h-108v1520h-195v-1520h-109v1072q-117 0 -198.5 82.5t-81.5 199.5z" />
<glyph unicode="&#xb7;" horiz-adv-x="552" d="M188 395v176h177v-176h-177z" />
<glyph unicode="&#xb8;" horiz-adv-x="856" d="M283 -262q31 -20 82 -37.5t77 -17.5q88 0 88 71q0 78 -106 78h-33l53 207l95 2l-39 -131q127 -35 127 -158q0 -70 -46 -112.5t-132 -42.5q-68 0 -166 53v88z" />
<glyph unicode="&#xb9;" horiz-adv-x="552" d="M141 571v101h60v528l104 49v-577h60v-101h-224z" />
<glyph unicode="&#xba;" horiz-adv-x="727" d="M119 926q0 143 64.5 228t178.5 85q117 0 180.5 -85t63.5 -228q0 -141 -63.5 -225.5t-180.5 -84.5q-115 0 -179 84.5t-64 225.5zM227 926q0 -207 135.5 -207t135.5 207q0 209 -135.5 209t-135.5 -209z" />
<glyph unicode="&#xbb;" horiz-adv-x="1044" d="M102 98v138l308 241l-308 242v137l453 -354v-49zM469 98v138l307 241l-307 242v137l453 -354v-49z" />
<glyph unicode="&#xbc;" horiz-adv-x="1187" d="M141 571v101h60v528l104 49v-577h60v-101h-224zM256 0l575 1229h111l-575 -1229h-111zM645 147v72l256 436h82v-407h53v-101h-53v-147h-100v147h-238zM770 248h113v190z" />
<glyph unicode="&#xbd;" horiz-adv-x="1187" d="M141 571v101h60v528l104 49v-577h60v-101h-224zM236 0l575 1229h111l-576 -1229h-110zM737 442q-1 19 -1 36q0 84 33 131q40 56 118 57q80 0 124 -50.5t44 -142.5q0 -66 -33 -123t-72 -91t-71.5 -76t-32.5 -79h209v-104h-310v94q0 55 33 109.5t72 91.5t71.5 85t32.5 93 q0 94 -67 94q-53 0 -53 -87q0 -17 2 -38h-99z" />
<glyph unicode="&#xbe;" horiz-adv-x="1187" d="M113 1126v101h321l-2 -78l-117 -168q117 -29 117 -207q0 -104 -44 -158.5t-120 -54.5q-78 0 -120 57q-35 48 -35 132q0 16 2 34h98q-2 -19 -2 -35q0 -89 57 -90q63 0 63.5 115t-63.5 115h-84v78l111 159h-182zM256 0l575 1229h111l-575 -1229h-111zM645 147v72l256 436 h82v-407h53v-101h-53v-147h-100v147h-238zM770 248h113v190z" />
<glyph unicode="&#xbf;" horiz-adv-x="839" d="M131 -127q0 86 32 153.5t74 108.5l84 81q42 40 64 93q15 34 15 75q0 22 -5 46h119q6 -30 6 -59q0 -40 -12 -76q-20 -61 -63 -107l-85 -88q-43 -43 -74.5 -101t-31.5 -126q0 -188 184 -188q147 0 147 134q0 41 -14 95h119q14 -61 15 -111q0 -91 -49 -147q-75 -86 -218 -86 q-141 0 -224 73.5t-83 229.5zM371 647v172h172v-172h-172z" />
<glyph unicode="&#xc0;" horiz-adv-x="942" d="M57 0l330 1229h168l330 -1229h-123l-74 281h-434l-74 -281h-123zM207 1718h135l242 -305h-121zM285 399h372l-186 719z" />
<glyph unicode="&#xc1;" horiz-adv-x="942" d="M57 0l330 1229h168l330 -1229h-123l-74 281h-434l-74 -281h-123zM285 399h372l-186 719zM358 1413l242 305h135l-256 -305h-121z" />
<glyph unicode="&#xc2;" horiz-adv-x="942" d="M57 0l330 1229h168l330 -1229h-123l-74 281h-434l-74 -281h-123zM184 1413l242 305h90l242 -305h-123l-164 197l-164 -197h-123zM285 399h372l-186 719z" />
<glyph unicode="&#xc3;" horiz-adv-x="942" d="M57 0l330 1229h168l330 -1229h-123l-74 281h-434l-74 -281h-123zM188 1446q4 92 42 147.5t112 55.5q63 0 143 -58.5t109 -58.5q39 0 55.5 18.5t26.5 73.5h78q-8 -201 -154 -201q-68 0 -143.5 57.5t-106.5 57.5q-39 0 -56.5 -19.5t-27.5 -72.5h-78zM285 399h372l-186 719z " />
<glyph unicode="&#xc4;" horiz-adv-x="942" d="M57 0l330 1229h168l330 -1229h-123l-74 281h-434l-74 -281h-123zM248 1423v131h131v-131h-131zM285 399h372l-186 719zM565 1423v131h131v-131h-131z" />
<glyph unicode="&#xc5;" horiz-adv-x="942" d="M57 0l330 1229h168l330 -1229h-123l-74 281h-434l-74 -281h-123zM254 1636q0 88 63.5 151.5t153.5 63.5t153.5 -63.5t63.5 -151.5t-63.5 -151.5t-153.5 -63.5t-153.5 63.5t-63.5 151.5zM285 399h372l-186 719zM346 1636.5q0 -51.5 36 -88.5t89 -37t89 37t36 88.5t-36 88 t-89 36.5t-89 -36.5t-36 -88z" />
<glyph unicode="&#xc6;" horiz-adv-x="1230" d="M78 0l330 1229h708v-119h-508l109 -410h358v-118h-325l124 -463h263v-119h-359l-76 281h-421l-76 -281h-127zM311 399h361l-180 676z" />
<glyph unicode="&#xc7;" horiz-adv-x="856" d="M129 614q0 326 87 480.5t296 154.5q125 0 258 -84v-141q-127 106 -258 106q-145 0 -202.5 -125.5t-57.5 -390t57.5 -390.5t202.5 -126q129 0 258 107v-142q-119 -78 -246 -83l-20 -70q127 -35 127 -158q0 -70 -46 -112.5t-132 -42.5q-68 0 -166 53v88q31 -20 82 -37.5 t77 -17.5q88 0 89 71q0 78 -107 78h-33l39 154q-166 27 -235.5 180t-69.5 448z" />
<glyph unicode="&#xc8;" horiz-adv-x="815" d="M127 346q0 209 127 309q-100 94 -100 263q0 150 77.5 240.5t217.5 90.5q98 0 251 -30v-119q-147 31 -251 30q-170 0 -170 -212q0 -96 38.5 -151.5t116.5 -55.5h225v-119h-225q-88 0 -135 -67.5t-47 -178.5q0 -248 197 -248q158 0 272 31v-119q-139 -31 -272 -30 q-152 0 -237 99t-85 267zM248 1718h135l242 -305h-121z" />
<glyph unicode="&#xc9;" horiz-adv-x="815" d="M127 346q0 209 127 309q-100 94 -100 263q0 150 77.5 240.5t217.5 90.5q98 0 251 -30v-119q-147 31 -251 30q-170 0 -170 -212q0 -96 38.5 -151.5t116.5 -55.5h225v-119h-225q-88 0 -135 -67.5t-47 -178.5q0 -248 197 -248q158 0 272 31v-119q-139 -31 -272 -30 q-152 0 -237 99t-85 267zM348 1413l242 305h135l-256 -305h-121z" />
<glyph unicode="&#xca;" horiz-adv-x="815" d="M127 346q0 209 127 309q-100 94 -100 263q0 150 77.5 240.5t217.5 90.5q98 0 251 -30v-119q-147 31 -251 30q-170 0 -170 -212q0 -96 38.5 -151.5t116.5 -55.5h225v-119h-225q-88 0 -135 -67.5t-47 -178.5q0 -248 197 -248q158 0 272 31v-119q-139 -31 -272 -30 q-152 0 -237 99t-85 267zM188 1413l242 305h90l242 -305h-123l-164 197l-164 -197h-123z" />
<glyph unicode="&#xcb;" horiz-adv-x="815" d="M127 346q0 209 127 309q-100 94 -100 263q0 150 77.5 240.5t217.5 90.5q98 0 251 -30v-119q-147 31 -251 30q-170 0 -170 -212q0 -96 38.5 -151.5t116.5 -55.5h225v-119h-225q-88 0 -135 -67.5t-47 -178.5q0 -248 197 -248q158 0 272 31v-119q-139 -31 -272 -30 q-152 0 -237 99t-85 267zM246 1423v131h131v-131h-131zM563 1423v131h131v-131h-131z" />
<glyph unicode="&#xcc;" horiz-adv-x="516" d="M0 1718h135l242 -305h-121zM197 0v1229h122v-1229h-122z" />
<glyph unicode="&#xcd;" horiz-adv-x="516" d="M166 1413l242 305h135l-256 -305h-121zM197 0v1229h122v-1229h-122z" />
<glyph unicode="&#xce;" horiz-adv-x="516" d="M-29 1413l242 305h90l242 -305h-123l-164 197l-164 -197h-123zM197 0v1229h122v-1229h-122z" />
<glyph unicode="&#xcf;" horiz-adv-x="516" d="M35 1423v131h131v-131h-131zM197 0v1229h122v-1229h-122zM352 1423v131h131v-131h-131z" />
<glyph unicode="&#xd0;" horiz-adv-x="1042" d="M0 571v109h176v549h264q473 0 473 -614.5t-473 -614.5h-264v571h-176zM299 119h141q350 0 350.5 495.5t-350.5 495.5h-141v-430h176v-109h-176v-452z" />
<glyph unicode="&#xd1;" horiz-adv-x="1005" d="M178 0v1229h117l418 -950v950h114v-1229h-116l-418 950v-950h-115zM221 1446q4 92 42 147.5t112 55.5q63 0 143 -58.5t109 -58.5q39 0 55 18.5t27 73.5h77q-8 -201 -153 -201q-68 0 -143.5 57.5t-106.5 57.5q-39 0 -56.5 -19.5t-27.5 -72.5h-78z" />
<glyph unicode="&#xd2;" horiz-adv-x="1003" d="M129 614.5q0 329.5 85 482t288 152.5t287.5 -152.5t84.5 -482t-84.5 -482t-287.5 -152.5t-288 152.5t-85 482zM244 1718h135l242 -305h-121zM252 614.5q0 -270.5 54 -393.5t195.5 -123t196 123t54.5 393.5t-54.5 393t-196 122.5t-195.5 -122.5t-54 -393z" />
<glyph unicode="&#xd3;" horiz-adv-x="1003" d="M129 614.5q0 329.5 85 482t288 152.5t287.5 -152.5t84.5 -482t-84.5 -482t-287.5 -152.5t-288 152.5t-85 482zM252 614.5q0 -270.5 54 -393.5t195.5 -123t196 123t54.5 393.5t-54.5 393t-196 122.5t-195.5 -122.5t-54 -393zM373 1413l241 305h136l-256 -305h-121z" />
<glyph unicode="&#xd4;" horiz-adv-x="1003" d="M129 614.5q0 329.5 85 482t288 152.5t287.5 -152.5t84.5 -482t-84.5 -482t-287.5 -152.5t-288 152.5t-85 482zM217 1413l242 305h90l242 -305h-123l-164 197l-164 -197h-123zM252 614.5q0 -270.5 54 -393.5t195.5 -123t196 123t54.5 393.5t-54.5 393t-196 122.5 t-195.5 -122.5t-54 -393z" />
<glyph unicode="&#xd5;" horiz-adv-x="1003" d="M129 614.5q0 329.5 85 482t288 152.5t287.5 -152.5t84.5 -482t-84.5 -482t-287.5 -152.5t-288 152.5t-85 482zM221 1446q4 92 42 147.5t112 55.5q63 0 143 -58.5t109 -58.5q39 0 55 18.5t27 73.5h77q-8 -201 -153 -201q-68 0 -143.5 57.5t-106.5 57.5q-39 0 -56.5 -19.5 t-27.5 -72.5h-78zM252 614.5q0 -270.5 54 -393.5t195.5 -123t196 123t54.5 393.5t-54.5 393t-196 122.5t-195.5 -122.5t-54 -393z" />
<glyph unicode="&#xd6;" horiz-adv-x="1003" d="M129 614.5q0 329.5 85 482t288 152.5t287.5 -152.5t84.5 -482t-84.5 -482t-287.5 -152.5t-288 152.5t-85 482zM252 614.5q0 -270.5 54 -393.5t195.5 -123t196 123t54.5 393.5t-54.5 393t-196 122.5t-195.5 -122.5t-54 -393zM279 1423v131h131v-131h-131zM596 1423v131 h131v-131h-131z" />
<glyph unicode="&#xd7;" d="M154 281l200 200l-200 199l77 78l199 -201l199 199l78 -78l-199 -197l199 -198l-78 -78l-199 198l-199 -200z" />
<glyph unicode="&#xd8;" horiz-adv-x="1003" d="M131 614q0 313 86 474t285 161q113 0 190 -53l58 135h110l-90 -215q102 -147 102 -502q0 -313 -86 -473.5t-284 -160.5q-113 0 -191 53l-57 -135h-111l90 213q-102 151 -102 503zM250 614q0 -233 45 -358l348 821q-57 53 -141 53q-139 0 -195.5 -131t-56.5 -385zM360 150 q57 -51 142 -52q139 0 195.5 131t56.5 385q0 233 -45 359z" />
<glyph unicode="&#xd9;" horiz-adv-x="983" d="M166 303v926h123v-926q0 -205 202.5 -205t202.5 205v926h123v-926q0 -150 -88 -236.5t-237.5 -86.5t-237.5 86.5t-88 236.5zM195 1718h135l241 -305h-120z" />
<glyph unicode="&#xda;" horiz-adv-x="983" d="M166 303v926h123v-926q0 -205 202.5 -205t202.5 205v926h123v-926q0 -150 -88 -236.5t-237.5 -86.5t-237.5 86.5t-88 236.5zM379 1413l242 305h135l-256 -305h-121z" />
<glyph unicode="&#xdb;" horiz-adv-x="983" d="M166 303v926h123v-926q0 -205 202.5 -205t202.5 205v926h123v-926q0 -150 -88 -236.5t-237.5 -86.5t-237.5 86.5t-88 236.5zM207 1413l242 305h90l241 -305h-123l-163 197l-164 -197h-123z" />
<glyph unicode="&#xdc;" horiz-adv-x="983" d="M166 303v926h123v-926q0 -205 202.5 -205t202.5 205v926h123v-926q0 -150 -88 -236.5t-237.5 -86.5t-237.5 86.5t-88 236.5zM268 1423v131h131v-131h-131zM586 1423v131h131v-131h-131z" />
<glyph unicode="&#xdd;" horiz-adv-x="856" d="M45 1229h131l252 -701l252 701h131l-549 -1508h-129l229 635zM377 1413l241 305h136l-256 -305h-121z" />
<glyph unicode="&#xde;" horiz-adv-x="886" d="M176 0v1229h123v-195h135q178 0 273.5 -103.5t95.5 -283.5q0 -178 -95.5 -281.5t-273.5 -103.5h-135v-262h-123zM299 381h135q246 0 246 266q0 268 -246 268h-135v-534z" />
<glyph unicode="&#xdf;" horiz-adv-x="890" d="M152 0v952q0 127 77.5 212t194.5 85q119 0 196.5 -68.5t77.5 -185.5q0 -63 -43 -128.5t-86 -122t-43 -101.5q0 -53 45 -104.5t99.5 -88t99.5 -100t45 -141.5q0 -100 -66.5 -161.5t-175.5 -61.5q-86 0 -182 63v127q90 -78 182 -78q49 0 84 29t35 86q0 45 -43 91t-94 82 t-94 100.5t-43 142.5q0 88 78.5 196.5t78.5 170t-38.5 98t-104.5 36.5q-72 0 -115 -45t-43 -129v-956h-122z" />
<glyph unicode="&#xe0;" horiz-adv-x="931" d="M121 410q0 430 311 430q111 0 186 -76l134 61v-657q0 -94 55 -94q20 0 43 12v-78q-51 -29 -102 -28q-43 0 -74 24.5t-41 65.5q-80 -90 -201 -90q-311 0 -311 430zM223 1309h135l242 -305h-121zM244 409.5q0 -311.5 188 -311.5q137 0 197 125v373q-59 125 -197 125 q-188 0 -188 -311.5z" />
<glyph unicode="&#xe1;" horiz-adv-x="931" d="M121 410q0 430 311 430q111 0 186 -76l134 61v-657q0 -94 55 -94q20 0 43 12v-78q-51 -29 -102 -28q-43 0 -74 24.5t-41 65.5q-80 -90 -201 -90q-311 0 -311 430zM244 409.5q0 -311.5 188 -311.5q137 0 197 125v373q-59 125 -197 125q-188 0 -188 -311.5zM375 1004 l241 305h136l-256 -305h-121z" />
<glyph unicode="&#xe2;" horiz-adv-x="931" d="M121 410q0 430 311 430q111 0 186 -76l134 61v-657q0 -94 55 -94q20 0 43 12v-78q-51 -29 -102 -28q-43 0 -74 24.5t-41 65.5q-80 -90 -201 -90q-311 0 -311 430zM188 1004l242 305h90l242 -305h-123l-164 196l-164 -196h-123zM244 409.5q0 -311.5 188 -311.5 q137 0 197 125v373q-59 125 -197 125q-188 0 -188 -311.5z" />
<glyph unicode="&#xe3;" horiz-adv-x="931" d="M121 410q0 430 311 430q111 0 186 -76l134 61v-657q0 -94 55 -94q20 0 43 12v-78q-51 -29 -102 -28q-43 0 -74 24.5t-41 65.5q-80 -90 -201 -90q-311 0 -311 430zM188 1036q4 92 42 147.5t112 55.5q63 0 143 -58.5t109 -58.5q39 0 55.5 18.5t26.5 73.5h78 q-8 -201 -154 -200q-68 0 -143.5 57t-106.5 57q-39 0 -56.5 -19t-27.5 -73h-78zM244 409.5q0 -311.5 188 -311.5q137 0 197 125v373q-59 125 -197 125q-188 0 -188 -311.5z" />
<glyph unicode="&#xe4;" horiz-adv-x="931" d="M121 410q0 430 311 430q111 0 186 -76l134 61v-657q0 -94 55 -94q20 0 43 12v-78q-51 -29 -102 -28q-43 0 -74 24.5t-41 65.5q-80 -90 -201 -90q-311 0 -311 430zM236 1014v131h131v-131h-131zM244 409.5q0 -311.5 188 -311.5q137 0 197 125v373q-59 125 -197 125 q-188 0 -188 -311.5zM553 1014v131h131v-131h-131z" />
<glyph unicode="&#xe5;" horiz-adv-x="931" d="M121 410q0 430 311 430q111 0 186 -76l134 61v-657q0 -94 55 -94q20 0 43 12v-78q-51 -29 -102 -28q-43 0 -74 24.5t-41 65.5q-80 -90 -201 -90q-311 0 -311 430zM244 409.5q0 -311.5 188 -311.5q137 0 197 125v373q-59 125 -197 125q-188 0 -188 -311.5zM244 1227 q0 88 63.5 151.5t153.5 63.5t153.5 -63.5t63.5 -151.5t-63.5 -151.5t-153.5 -63.5t-153.5 63.5t-63.5 151.5zM336 1227q0 -51 37 -88t88 -37t88 37t37 88t-37 88t-88 37t-88 -37t-37 -88z" />
<glyph unicode="&#xe6;" horiz-adv-x="1290" d="M92 219q0 141 119 227t350 86v9q0 109 -42 144.5t-134 35.5q-74 0 -207 -53v125q125 47 213 47q193 0 254 -115q94 115 264 115q111 0 178.5 -49.5t82.5 -117.5q9 -41 10 -83q0 -27 -4 -54q-10 -69 -39 -116h-455v-10q0 -158 58.5 -237t185.5 -79q59 0 130.5 29t114.5 74 v-134q-129 -84 -272 -83q-188 0 -278 151q-164 -152 -306 -151q-104 0 -163.5 65t-59.5 174zM211 215q0 -123 113 -123q119 0 258 137q-23 84 -23 181v10q-164 0 -256 -52.5t-92 -152.5zM692 532h355q13 38 13 79q0 48 -40 81q-39 33 -111 33q-178 0 -217 -193z" />
<glyph unicode="&#xe7;" horiz-adv-x="808" d="M121 410q0 221 90 325.5t246 104.5q133 0 195 -80q47 -60 47 -140q0 -26 -5 -55h-108q2 17 2 34q0 49 -24 82q-32 44 -107 44q-213 0 -213 -315q0 -158 53 -237t174 -79q55 0 124 29t110 74v-134q-104 -76 -240 -83l-21 -70q127 -35 127 -158q0 -70 -46 -112.5 t-132 -42.5q-68 0 -166 53v88q31 -20 82 -37.5t78 -17.5q88 0 88 71q0 78 -106 78h-33l39 154q-119 25 -186.5 133.5t-67.5 290.5z" />
<glyph unicode="&#xe8;" horiz-adv-x="851" d="M121 410q0 219 94 324.5t256 105.5q111 0 178.5 -49.5t82.5 -117.5q9 -41 9 -83q0 -27 -4 -54q-10 -69 -39 -116h-454v-10q0 -158 58 -237t185 -79q59 0 131 29t115 74v-134q-129 -84 -272 -83q-160 0 -250 111.5t-90 318.5zM205 1309h135l242 -305h-121zM254 532h354 q13 38 14 79q0 48 -40 81q-39 33 -111 33q-178 0 -217 -193z" />
<glyph unicode="&#xe9;" horiz-adv-x="851" d="M121 410q0 219 94 324.5t256 105.5q111 0 178.5 -49.5t82.5 -117.5q9 -41 9 -83q0 -27 -4 -54q-10 -69 -39 -116h-454v-10q0 -158 58 -237t185 -79q59 0 131 29t115 74v-134q-129 -84 -272 -83q-160 0 -250 111.5t-90 318.5zM254 532h354q13 38 14 79q0 48 -40 81 q-39 33 -111 33q-178 0 -217 -193zM336 1004l242 305h135l-256 -305h-121z" />
<glyph unicode="&#xea;" horiz-adv-x="851" d="M121 410q0 219 94 324.5t256 105.5q111 0 178.5 -49.5t82.5 -117.5q9 -41 9 -83q0 -27 -4 -54q-10 -69 -39 -116h-454v-10q0 -158 58 -237t185 -79q59 0 131 29t115 74v-134q-129 -84 -272 -83q-160 0 -250 111.5t-90 318.5zM176 1004l242 305h90l242 -305h-123l-164 196 l-164 -196h-123zM254 532h354q13 38 14 79q0 48 -40 81q-39 33 -111 33q-178 0 -217 -193z" />
<glyph unicode="&#xeb;" horiz-adv-x="851" d="M121 410q0 219 94 324.5t256 105.5q111 0 178.5 -49.5t82.5 -117.5q9 -41 9 -83q0 -27 -4 -54q-10 -69 -39 -116h-454v-10q0 -158 58 -237t185 -79q59 0 131 29t115 74v-134q-129 -84 -272 -83q-160 0 -250 111.5t-90 318.5zM238 1014v131h131v-131h-131zM254 532h354 q13 38 14 79q0 48 -40 81q-39 33 -111 33q-178 0 -217 -193zM555 1014v131h131v-131h-131z" />
<glyph unicode="&#xec;" horiz-adv-x="466" d="M-14 1309h135l241 -305h-120zM172 0v803l123 57v-860h-123z" />
<glyph unicode="&#xed;" horiz-adv-x="466" d="M109 1004l241 305h135l-256 -305h-120zM172 0v803l123 57v-860h-123z" />
<glyph unicode="&#xee;" horiz-adv-x="466" d="M-53 1004l241 305h91l241 -305h-123l-164 196l-163 -196h-123zM172 0v803l123 57v-860h-123z" />
<glyph unicode="&#xef;" horiz-adv-x="466" d="M8 1014v131h131v-131h-131zM172 0v803l123 57v-860h-123zM326 1014v131h131v-131h-131z" />
<glyph unicode="&#xf0;" d="M143 344q0 184 73 274.5t194 90.5q76 0 129 -41q-49 145 -129 274l-45 -27l-95 -53l-45 -26l-55 94l182 104q-74 109 -153 195h151q47 -53 103 -137l180 104l53 -94l-176 -101q207 -350 207 -657q0 -365 -287 -364q-135 0 -211 90t-76 274zM266 344q0 -250 164 -250 t164 250q0 131 -40 190.5t-124 59.5t-124 -59.5t-40 -190.5z" />
<glyph unicode="&#xf1;" horiz-adv-x="884" d="M152 0v803l122 57v-100q49 31 118 55.5t114 24.5q139 0 188 -82t49 -240v-518h-122v518q0 115 -31 159t-94 44q-53 0 -118 -25.5t-104 -56.5v-639h-122zM166 1036q4 92 42 147.5t111 55.5q63 0 143.5 -58.5t108.5 -58.5q39 0 55.5 18.5t26.5 73.5h78q-8 -201 -153 -200 q-68 0 -144 57t-106 57q-39 0 -56.5 -19t-27.5 -73h-78z" />
<glyph unicode="&#xf2;" horiz-adv-x="905" d="M121 410q0 430 331.5 430t331.5 -430t-331.5 -430t-331.5 430zM219 1309h135l242 -305h-121zM244 409.5q0 -315.5 209 -315.5t209 315.5t-209 315.5t-209 -315.5z" />
<glyph unicode="&#xf3;" horiz-adv-x="905" d="M121 410q0 430 331.5 430t331.5 -430t-331.5 -430t-331.5 430zM244 409.5q0 -315.5 209 -315.5t209 315.5t-209 315.5t-209 -315.5zM317 1004l242 305h135l-256 -305h-121z" />
<glyph unicode="&#xf4;" horiz-adv-x="905" d="M121 410q0 430 331.5 430t331.5 -430t-331.5 -430t-331.5 430zM168 1004l242 305h90l241 -305h-123l-163 196l-164 -196h-123zM244 409.5q0 -315.5 209 -315.5t209 315.5t-209 315.5t-209 -315.5z" />
<glyph unicode="&#xf5;" horiz-adv-x="905" d="M121 410q0 430 331.5 430t331.5 -430t-331.5 -430t-331.5 430zM170 1036q4 92 42 147.5t112 55.5q63 0 143 -58.5t108 -58.5q39 0 55.5 18.5t26.5 73.5h78q-8 -201 -153 -200q-68 0 -144 57t-106 57q-39 0 -56.5 -19t-27.5 -73h-78zM244 409.5q0 -315.5 209 -315.5 t209 315.5t-209 315.5t-209 -315.5z" />
<glyph unicode="&#xf6;" horiz-adv-x="905" d="M121 410q0 430 331.5 430t331.5 -430t-331.5 -430t-331.5 430zM229 1014v131h131v-131h-131zM244 409.5q0 -315.5 209 -315.5t209 315.5t-209 315.5t-209 -315.5zM547 1014v131h131v-131h-131z" />
<glyph unicode="&#xf7;" d="M123 428v109h614v-109h-614zM352 129v156h156v-156h-156zM352 680v156h156v-156h-156z" />
<glyph unicode="&#xf8;" horiz-adv-x="905" d="M121 410q0 430 332 430q84 0 143 -27l55 109h111q-82 -166 -84 -166q106 -111 106 -346q0 -430 -331 -430q-84 0 -144 26l-14 -26q-12 -27 -27 -54l-14 -28h-111l82 165q-104 111 -104 347zM244 410q0 -143 43 -224l43 87l83 168l95 190l37 74q-39 20 -92 20 q-209 0 -209 -315zM360 113q41 -18 93 -19q209 0 209 316q0 143 -44 223z" />
<glyph unicode="&#xf9;" horiz-adv-x="903" d="M141 322v497h123v-497q0 -135 30 -179.5t95 -44.5q102 0 211 74v647h123v-651q0 -94 55 -94q20 0 43 12v-78q-51 -29 -102 -28q-88 0 -113 77q-47 -31 -114.5 -54t-112.5 -23q-141 0 -189.5 84t-48.5 258zM190 1309h136l241 -305h-121z" />
<glyph unicode="&#xfa;" horiz-adv-x="903" d="M141 322v497h123v-497q0 -135 30 -179.5t95 -44.5q102 0 211 74v647h123v-651q0 -94 55 -94q20 0 43 12v-78q-51 -29 -102 -28q-88 0 -113 77q-47 -31 -114.5 -54t-112.5 -23q-141 0 -189.5 84t-48.5 258zM303 1004l242 305h135l-256 -305h-121z" />
<glyph unicode="&#xfb;" horiz-adv-x="903" d="M141 322v497h123v-497q0 -135 30 -179.5t95 -44.5q102 0 211 74v647h123v-651q0 -94 55 -94q20 0 43 12v-78q-51 -29 -102 -28q-88 0 -113 77q-47 -31 -114.5 -54t-112.5 -23q-141 0 -189.5 84t-48.5 258zM145 1004l242 305h90l242 -305h-123l-164 196l-164 -196h-123z " />
<glyph unicode="&#xfc;" horiz-adv-x="903" d="M141 322v497h123v-497q0 -135 30 -179.5t95 -44.5q102 0 211 74v647h123v-651q0 -94 55 -94q20 0 43 12v-78q-51 -29 -102 -28q-88 0 -113 77q-47 -31 -114.5 -54t-112.5 -23q-141 0 -189.5 84t-48.5 258zM207 1014v131h131v-131h-131zM524 1014v131h131v-131h-131z" />
<glyph unicode="&#xfd;" horiz-adv-x="776" d="M41 -301q11 -2 21 -2q65 0 125 65q71 76 132 293l5 15l-265 749h129l199 -573l201 573h129l-285 -809q-82 -233 -176 -335q-80 -86 -178 -85q-18 0 -37 2v107zM324 1004l241 305h135l-256 -305h-120z" />
<glyph unicode="&#xfe;" horiz-adv-x="903" d="M152 -410v1213v426l122 57v-534q82 88 197 88q311 0 311 -430t-311 -430q-115 0 -197 88v-478h-122zM274 223q59 -125 197 -125q188 0 188 311.5t-188 311.5q-137 0 -197 -125v-373z" />
<glyph unicode="&#xff;" horiz-adv-x="776" d="M41 -301q11 -2 21 -2q65 0 125 65q71 76 132 293l5 15l-265 749h129l199 -573l201 573h129l-285 -809q-82 -233 -176 -335q-80 -86 -178 -85q-18 0 -37 2v107zM164 1014v131h131v-131h-131zM481 1014v131h131v-131h-131z" />
<glyph unicode="&#x152;" horiz-adv-x="1312" d="M129 614.5q0 329.5 85 482t288 152.5q78 0 133 -20h563v-119h-416q80 -127 90 -410h285v-118h-283q-4 -326 -92 -463h437v-119h-584q-55 -20 -133 -20q-203 0 -288 152.5t-85 482zM252 614.5q0 -270.5 54 -393.5t195.5 -123t196 123t54.5 393.5t-54.5 393t-196 122.5 t-195.5 -122.5t-54 -393z" />
<glyph unicode="&#x153;" horiz-adv-x="1392" d="M121 410q0 430 332 430q190 0 274 -148q88 147 285 148q111 0 178 -49.5t83 -117.5q9 -41 9 -83q0 -27 -4 -54q-10 -69 -39 -116h-455v-10q0 -158 58.5 -237t185.5 -79q59 0 131 29t115 74v-134q-129 -84 -273 -83q-186 0 -274 147q-84 -147 -274 -147q-332 0 -332 430z M244 409.5q0 -315.5 209 -315.5t209 315.5t-209 315.5t-209 -315.5zM795 532h354q13 38 13 79q0 48 -40 81q-39 33 -110 33q-178 0 -217 -193z" />
<glyph unicode="&#x178;" horiz-adv-x="856" d="M45 1229h131l252 -701l252 701h131l-549 -1508h-129l229 635zM203 1423v131h131v-131h-131zM520 1423v131h131v-131h-131z" />
<glyph unicode="&#x2c6;" d="M147 1004l242 305h90l242 -305h-123l-164 196l-164 -196h-123z" />
<glyph unicode="&#x2dc;" d="M147 1036q4 92 42 147.5t112 55.5q63 0 143 -58.5t109 -58.5q39 0 55.5 18.5t26.5 73.5h78q-8 -201 -154 -200q-68 0 -143.5 57t-106.5 57q-39 0 -56 -19t-28 -73h-78z" />
<glyph unicode="&#x2013;" horiz-adv-x="985" d="M10 428v109h967v-109h-967z" />
<glyph unicode="&#x2014;" horiz-adv-x="1142" d="M10 428v109h1125v-109h-1125z" />
<glyph unicode="&#x2018;" horiz-adv-x="481" d="M150 1057v172h172v-152q-43 -4 -55 -60q-3 -15 -3 -32q0 -42 22 -88q30 -63 89 -82v-82q-225 39 -225 324z" />
<glyph unicode="&#x2019;" horiz-adv-x="481" d="M106 733v82q59 18 90 82q22 46 21 88q0 16 -3 32q-11 56 -54 60v152h172v-172q-1 -285 -226 -324z" />
<glyph unicode="&#x201a;" horiz-adv-x="481" d="M106 -238q59 18 89 82t19 120t-54 61v151h172v-172q0 -285 -226 -323v81z" />
<glyph unicode="&#x201c;" horiz-adv-x="821" d="M154 1053v176h163v-156q-43 -4 -54 -60q-3 -15 -3 -32q0 -42 22 -88q30 -63 89 -82v-82q-217 37 -217 324zM494 1073v156h163v-156q-43 -4 -54 -60q-3 -15 -3 -32q0 -42 22 -88q30 -63 89 -82v-82q-217 37 -217 344z" />
<glyph unicode="&#x201d;" horiz-adv-x="821" d="M111 729v82q59 18 89 82q22 46 21 88q0 16 -3 32q-11 56 -54 60v156h164v-156q0 -307 -217 -344zM451 729v82q59 18 89 82q22 46 21 88q0 16 -3 32q-11 56 -54 60v156h164v-176q0 -287 -217 -324z" />
<glyph unicode="&#x201e;" horiz-adv-x="821" d="M111 -242q59 18 89 82q22 46 21 89q0 16 -3 31q-11 56 -54 60v156h164v-176q0 -287 -217 -324v82zM451 -242q59 18 89 82q22 46 21 89q0 16 -3 31q-11 56 -54 60v156h164v-176q0 -287 -217 -324v82z" />
<glyph unicode="&#x2022;" horiz-adv-x="704" d="M164 485.5q0 77.5 55 133t133 55.5t133.5 -55.5t55.5 -133t-55.5 -133t-133.5 -55.5t-133 55.5t-55 133z" />
<glyph unicode="&#x2026;" horiz-adv-x="1576" d="M160 0v172h172v-172h-172zM672 0v172h172v-172h-172zM1184 0v172h172v-172h-172z" />
<glyph unicode="&#x2039;" horiz-adv-x="677" d="M123 453v49l452 354v-137l-307 -242l307 -241v-138z" />
<glyph unicode="&#x203a;" horiz-adv-x="677" d="M102 98v138l308 241l-308 242v137l453 -354v-49z" />
<glyph unicode="&#x2122;" horiz-adv-x="1435" d="M86 1122v107h471v-107h-180v-643h-111v643h-180zM651 479l70 750h102l142 -398l143 398h100l70 -750h-107l-45 494l-122 -338h-78l-121 338l-47 -494h-107z" />
<glyph unicode="&#xe000;" horiz-adv-x="820" d="M0 820h820v-820h-820v820z" />
<glyph unicode="&#xfb01;" horiz-adv-x="1052" d="M74 711v108h131v131q0 145 65.5 222t184.5 77q55 0 140 -23.5t128 -23.5q45 0 84 17.5t57 33.5l17 17v-135q-51 -47 -158 -48q-41 0 -131 21.5t-137 21.5q-127 0 -127 -180v-131h553v-819h-123v711h-430v-711h-123v711h-131z" />
<glyph unicode="&#xfb02;" horiz-adv-x="1052" d="M74 711v108h131v131q0 145 65.5 222t184.5 77q55 0 138 -23.5t126 -23.5q45 0 85 17.5t58 33.5l19 17v-1270h-123v1098q-14 -8 -45 -8q-41 0 -126 20t-132 20q-127 0 -127 -180v-131h262v-108h-262v-711h-123v711h-131z" />
<glyph unicode="&#xfb03;" horiz-adv-x="1703" d="M74 711v108h131v131q0 299 237 299q84 0 148 -37v-137q-61 55 -135 55q-63 0 -95 -35.5t-32 -144.5v-131h262v-108h-262v-711h-123v711h-131zM692 711v108h131v131q0 299 238 299q84 0 147 -37v-137q-61 55 -135 55q-63 0 -95 -35.5t-32 -144.5v-131h262v-108h-262v-711 h-123v711h-131zM1409 0v803l123 57v-860h-123zM1409 1073v156h123v-156h-123z" />
<glyph unicode="&#xfb04;" horiz-adv-x="1703" d="M74 711v108h131v131q0 299 237 299q84 0 148 -37v-137q-61 55 -135 55q-63 0 -95 -35.5t-32 -144.5v-131h262v-108h-262v-711h-123v711h-131zM692 711v108h131v131q0 299 238 299q84 0 147 -37v-137q-61 55 -135 55q-63 0 -95 -35.5t-32 -144.5v-131h262v-108h-262v-711 h-123v711h-131zM1409 0v1229l123 57v-1286h-123z" />
</font>
</defs>
</svg>
